<svg width="600" height="539" viewBox="0 0 600 539" fill="none" xmlns="http://www.w3.org/2000/svg">
<g clip-path="url(#clip0)">
<path fill-rule="evenodd" clip-rule="evenodd" d="M300.228 539.209C300.228 539.209 476.456 392.556 476.456 295.228C476.456 197.9 397.556 119 300.228 119C202.9 119 124 197.9 124 295.228C124 392.556 300.228 539.209 300.228 539.209ZM300.553 350.499C338.523 350.499 369.303 319.719 369.303 281.749C369.303 243.779 338.523 212.998 300.553 212.998C262.583 212.998 231.802 243.779 231.802 281.749C231.802 319.719 262.583 350.499 300.553 350.499Z" fill="white"/>
<path fill-rule="evenodd" clip-rule="evenodd" d="M78.7472 280.599C74.1647 264.105 59.0385 252 41.0849 252C19.4989 252 2 269.499 2 291.085C2 312.671 19.4989 330.17 41.0849 330.17C59.0385 330.17 74.1648 318.065 78.7472 301.571L146.153 301.571L146.153 280.599L78.7472 280.599Z" fill="white"/>
<path fill-rule="evenodd" clip-rule="evenodd" d="M521.575 280.599C526.158 264.105 541.284 252 559.238 252C580.824 252 598.323 269.499 598.323 291.085C598.323 312.671 580.824 330.17 559.238 330.17C541.284 330.17 526.158 318.065 521.575 301.571L454.17 301.571L454.17 280.599L521.575 280.599Z" fill="white"/>
<path fill-rule="evenodd" clip-rule="evenodd" d="M109.338 174.466C114.042 158.006 107.463 139.784 92.1514 130.409C73.7421 119.138 49.6808 124.924 38.4092 143.333C27.1375 161.743 32.9237 185.804 51.3331 197.075C66.6446 206.45 85.8659 204.025 98.3865 192.352L158.136 228.935L169.087 211.049L109.338 174.466Z" fill="white"/>
<path fill-rule="evenodd" clip-rule="evenodd" d="M490.985 174.466C486.28 158.006 492.86 139.784 508.171 130.409C526.58 119.138 550.642 124.924 561.913 143.333C573.185 161.743 567.399 185.804 548.989 197.075C533.678 206.45 514.457 204.025 501.936 192.352L442.186 228.935L431.235 211.049L490.985 174.466Z" fill="white"/>
<path fill-rule="evenodd" clip-rule="evenodd" d="M188.818 88.1934C200.341 75.5343 202.537 56.2855 192.98 41.0871C181.489 22.8136 157.36 17.3151 139.087 28.8058C120.814 40.2965 115.315 64.4251 126.806 82.6986C136.363 97.897 154.662 104.258 171.064 99.3575L208.359 158.666L226.113 147.502L188.818 88.1934Z" fill="white"/>
<path fill-rule="evenodd" clip-rule="evenodd" d="M411.504 88.1934C399.981 75.5343 397.786 56.2855 407.343 41.0871C418.833 22.8136 442.962 17.3151 461.235 28.8058C479.509 40.2965 485.007 64.4251 473.517 82.6986C463.96 97.897 445.66 104.258 429.258 99.3575L391.964 158.666L374.21 147.502L411.504 88.1934Z" fill="white"/>
<path fill-rule="evenodd" clip-rule="evenodd" d="M310.571 76.7472C327.065 72.1647 339.17 57.0385 339.17 39.0849C339.17 17.4989 321.671 0 300.085 0C278.499 0 261 17.4989 261 39.0849C261 57.0385 273.105 72.1648 289.599 76.7472V146.807H310.571V76.7472Z" fill="white"/>
</g>
<defs>
<clipPath id="clip0">
<rect width="600" height="539" fill="white"/>
</clipPath>
</defs>
</svg>
